<svg xmlns="http://www.w3.org/2000/svg" viewBox="0 0 281.81 281.83">
    <defs>
        <style>.cls-1{fill:#a5b3bb;}.cls-2{fill:#0d2b3e;}</style>
    </defs>
    <title>cog</title>
    <g id="Layer_2" data-name="Layer 2">
        <g id="Layer_1-2" data-name="Layer 1">
            <path id="primary" class="cls-1" d="M106.46,281.83h0a145.06,145.06,0,0,1-40.82-16.94,36.26,36.26,0,0,0-48.7-48.7A144.13,144.13,0,0,1,0,175.34,36.16,36.16,0,0,0,24.89,140.9,36.26,36.26,0,0,0,0,106.46,144.43,144.43,0,0,1,16.92,65.62a36.26,36.26,0,0,0,48.7-48.7A144.43,144.43,0,0,1,106.46,0,36.26,36.26,0,0,0,140.9,24.89,36.16,36.16,0,0,0,175.34,0a144.37,144.37,0,0,1,40.85,16.92,36.26,36.26,0,0,0,48.7,48.7,144.55,144.55,0,0,1,16.92,40.84,36.26,36.26,0,0,0,0,68.87,144.61,144.61,0,0,1-16.92,40.85,36.27,36.27,0,0,0-48.7,48.7,144.37,144.37,0,0,1-40.83,16.92,36.26,36.26,0,0,0-68.89,0ZM140.9,82.89a58,58,0,1,0,58,58h0A58.08,58.08,0,0,0,140.9,82.89Z"/>
            <circle id="secondary" class="cls-2" cx="140.9" cy="140.9" r="29"/>
        </g>
    </g>
</svg>