<svg xmlns="http://www.w3.org/2000/svg" viewBox="0 0 442.55 449.16"><defs><style>.cls-1{fill:#3e3e40;}.cls-2{fill:#7c7c80;}.cls-3{fill:#dfdfe5;}.cls-4{fill:#bababf;}.cls-5{fill:#3fa9f5;}.cls-6{fill:#f8f7ff;}.cls-7{fill:#fff;}</style></defs><title>graybow</title><g id="Layer_2" data-name="Layer 2"><g id="Layer_1-2" data-name="Layer 1"><path class="cls-1" d="M421.33,0C192.84,14.17,10.5,198.81,0,428.28a20,20,0,0,0,20,20.88H49.55c0-218.57,175.31-396.19,393-399.93V20A20,20,0,0,0,421.33,0Z"/><path class="cls-2" d="M442.55,49.23c-217.69,3.74-393,181.36-393,399.93h50c0-191,152.93-346.19,343-349.92Z"/><path class="cls-3" d="M125.49,424.16A325.09,325.09,0,0,1,417.54,125.72h0a325.1,325.1,0,0,0-292,298.44Z"/><path class="cls-4" d="M442.55,99.24c-190.07,3.73-343,159-343,349.92h50c0-163.34,130.54-296.19,293-299.91v-50Z"/><path class="cls-3" d="M150,448.66a299.51,299.51,0,0,1,292-298.9v49a250.49,250.49,0,0,0-243,249.88Z"/><path class="cls-3" d="M441.55,150.28v48a251,251,0,0,0-243,249.87h-48a298.74,298.74,0,0,1,291-297.88m1-1c-162.46,3.72-293,136.57-293,299.91h50c0-135.73,108.16-246.19,243-249.89v-50Z"/><path class="cls-5" d="M225.91,424.16A225.15,225.15,0,0,1,417.54,226.42h0A225.11,225.11,0,0,0,225.92,424.16Z"/><path class="cls-6" d="M442.55,199.27c-134.84,3.7-243,114.16-243,249.89h50c0-108.11,85.78-196.17,193-199.86v-50Z"/><path class="cls-7" d="M442.55,281.24V249.3c-107.22,3.69-193,91.75-193,199.86h31.16a20,20,0,0,0,19.86-17.61A150.09,150.09,0,0,1,425.77,301,20,20,0,0,0,442.55,281.24Z"/></g></g></svg>