<svg xmlns="http://www.w3.org/2000/svg" viewBox="0 0 442.55 449.16"><defs><style>.cls-1{fill:#3e3e40;}.cls-2{fill:#7c7c80;}.cls-3{fill:#dfdfe5;}.cls-4{fill:#bababf;}.cls-5{fill:#3fa9f5;}.cls-6{fill:#f8f7ff;}.cls-7{fill:#fff;}</style></defs><title>Graybow</title><g id="Layer_2" data-name="Layer 2"><g id="Layer_1-2" data-name="Layer 1"><path class="cls-1" d="M21.21,0C249.7,14.17,432,198.81,442.52,428.28a20,20,0,0,1-20,20.88H393C393,230.59,217.68,53,0,49.23V20A20,20,0,0,1,21.21,0Z"/><path class="cls-2" d="M0,49.23C217.68,53,393,230.59,393,449.16H343C343,258.2,190.07,103,0,99.24Z"/><path class="cls-3" d="M317.06,424.16a323,323,0,0,0-91.77-202.3A323,323,0,0,0,25,125.72h0A323,323,0,0,1,224.94,221.5a322.92,322.92,0,0,1,92.12,202.66Z"/><path class="cls-4" d="M0,99.24v50C162.45,153,293,285.82,293,449.16h50C343,258.2,190.07,103,0,99.24Z"/><path class="cls-3" d="M243.5,448.66a249.12,249.12,0,0,0-71.08-174.3A249.09,249.09,0,0,0,.5,198.78v-49A297.8,297.8,0,0,1,207.06,239.7a297.8,297.8,0,0,1,85.44,209Z"/><path class="cls-3" d="M1,150.28a296.65,296.65,0,0,1,112.91,25.35,298,298,0,0,1,92.79,64.42,297.94,297.94,0,0,1,62.44,94.25A297.23,297.23,0,0,1,292,448.16H244A249.65,249.65,0,0,0,172.78,274a250.33,250.33,0,0,0-77.52-54.13A249.12,249.12,0,0,0,1,198.29v-48m-1-1v50C134.83,203,243,313.43,243,449.16h50C293,285.82,162.45,153,0,149.25Z"/><path class="cls-5" d="M216.63,424.16a223.7,223.7,0,0,0-62-131.48A223.77,223.77,0,0,0,25,226.43h0a223.69,223.69,0,0,1,129.16,65.73,223.61,223.61,0,0,1,62.47,132Z"/><path class="cls-6" d="M0,199.27v50C107.21,253,193,341.05,193,449.16h50C243,313.43,134.83,203,0,199.27Z"/><path class="cls-7" d="M0,281.24V249.3C107.21,253,193,341.05,193,449.16H161.84A20,20,0,0,1,142,431.55,150.11,150.11,0,0,0,16.77,301,20,20,0,0,1,0,281.24Z"/></g></g></svg>