<svg xmlns="http://www.w3.org/2000/svg" viewBox="0 0 442.55 449.16">
    <defs>
        <style>
            .cls-1 {
                fill:#ff1d25;
            }
            .cls-2 {
                fill:#ff931e;
            }
            .cls-3 {
                fill:#ff0;
            }
            .cls-4 {
                fill:#7ac943;
            }
            .cls-5 {
                fill:#3fa9f5;
            }
            .cls-6 {
                fill:#2e3192;
            }
        </style>
    </defs>
    <title>rainbow</title>
    <g id="Layer_2" data-name="Layer 2">
        <g id="Layer_1-2" data-name="Layer 1">
            <path class="cls-1" d="M421.33,0C192.84,14.17,10.5,198.81,0,428.28a20,20,0,0,0,20,20.88H49.55c0-218.57,175.31-396.19,393-399.93V20A20,20,0,0,0,421.33,0Z"/>
            <path class="cls-2" d="M442.55,49.23c-217.69,3.74-393,181.36-393,399.93h50c0-191,152.93-346.19,343-349.92Z"/>
            <path class="cls-3" d="M442.55,99.24c-190.07,3.73-343,159-343,349.92h50c0-163.34,130.54-296.19,293-299.91v-50Z"/>
            <path class="cls-4" d="M442.55,149.25c-162.46,3.72-293,136.57-293,299.91h50c0-135.73,108.16-246.19,243-249.89v-50Z"/>
            <path class="cls-5" d="M442.55,199.27c-134.84,3.7-243,114.16-243,249.89h50c0-108.11,85.78-196.17,193-199.86v-50Z"/>
            <path class="cls-6" d="M442.55,249.3c-107.22,3.69-193,91.75-193,199.86h31.16a20,20,0,0,0,19.86-17.61A150.09,150.09,0,0,1,425.77,301a20,20,0,0,0,16.78-19.8V249.3Z"/>
        </g>
    </g>
</svg>