<svg xmlns="http://www.w3.org/2000/svg" xmlns:xlink="http://www.w3.org/1999/xlink" viewBox="0 0 649 649">
    <defs>
        <style>
            .cls-1 {
                fill: #f8f7ff;
            }
            .cls-2 {
                fill: none;
                stroke-miterlimit: 10;
                stroke-width: 33px;
                stroke: url(#linear-gradient);
            }
            .cls-3 {
                fill: #3e3e40;
            }
            .cls-4 {
                fill: #666;
            }
        </style>
        <linearGradient id="linear-gradient" x1="40.5" y1="222.97" x2="608.5" y2="222.97" gradientUnits="userSpaceOnUse">
            <stop offset="0" stop-color="#39b54a"/>
            <stop offset="0.1" stop-color="#72ca35"/>
            <stop offset="0.19" stop-color="#a4dd22"/>
            <stop offset="0.28" stop-color="#cbec13"/>
            <stop offset="0.37" stop-color="#e8f609"/>
            <stop offset="0.44" stop-color="#f9fd02"/>
            <stop offset="0.5" stop-color="#ff0"/>
            <stop offset="0.54" stop-color="#fff900"/>
            <stop offset="0.61" stop-color="#ffe900"/>
            <stop offset="0.68" stop-color="#ffce00"/>
            <stop offset="0.75" stop-color="#ffa800"/>
            <stop offset="0.84" stop-color="#f70"/>
            <stop offset="0.92" stop-color="#ff3d00"/>
            <stop offset="1" stop-color="red"/>
        </linearGradient>
    </defs>
    <title>speedometer</title>
    <g id="Layer_2" data-name="Layer 2">
        <g id="Layer_1-2" data-name="Layer 1">
            <circle class="cls-1" cx="324.5" cy="324.5" r="324.5"/>
            <path class="cls-2" d="M329.59,56.05C179.63,53.25,56,175.38,57,325.36a268,268,0,0,0,6.9,58.8,7.5,7.5,0,0,0,9.2,5.53h0a5.82,5.82,0,0,0,4.19-7c-8.9-37.43-9.52-78.06.32-119.9A248.88,248.88,0,0,1,265.42,77.21C430.64,40.39,576.93,165.09,576.93,324a253.91,253.91,0,0,1-6.26,56.21,7.48,7.48,0,0,0,5.39,8.9h0a7.48,7.48,0,0,0,9.17-5.54,268,268,0,0,0,6.77-60C592,177.47,475,58.76,329.59,56.05Z"/>
            <circle class="cls-3" cx="324.5" cy="324.5" r="44.5"/>
            <path class="cls-3" d="M317.14,77.45,303.3,437.31a7.39,7.39,0,0,0,7.4,7.69h27.68a7.41,7.41,0,0,0,7.4-7.69L331.94,77.45C331.57,68,317.5,68,317.14,77.45Z"/>
            <rect class="cls-4" x="248" y="486" width="18" height="54"/>
            <rect class="cls-4" x="293" y="486" width="18" height="54"/>
            <rect class="cls-4" x="338" y="486" width="18" height="54"/>
            <rect class="cls-4" x="383" y="486" width="18" height="54"/>
            <rect class="cls-4" x="248" y="522" width="153" height="18"/>
        </g>
    </g>
</svg>